<?xml version="1.0" standalone="no"?>
<!DOCTYPE svg PUBLIC "-//W3C//DTD SVG 20010904//EN"
 "http://www.w3.org/TR/2001/REC-SVG-20010904/DTD/svg10.dtd">
<svg version="1.0" xmlns="http://www.w3.org/2000/svg"
 width="2048.000000pt" height="708.000000pt" viewBox="0 0 2048.000000 708.000000"
 preserveAspectRatio="xMidYMid meet">

<g transform="translate(0.000000,708.000000) scale(0.100000,-0.100000)"
fill="#000000" stroke="none">
<path d="M0 3540 l0 -3540 10240 0 10240 0 0 3540 0 3540 -10240 0 -10240 0 0
-3540z m10026 3237 c109 -62 199 -118 201 -124 2 -6 -9 -15 -24 -20 -25 -9
-47 1 -203 89 -96 54 -185 103 -197 108 -13 5 -23 13 -23 16 0 10 32 44 41 44
4 0 97 -51 205 -113z m-7696 -96 c0 -156 0 -159 -22 -165 -13 -3 -258 -6 -545
-6 l-523 0 0 165 0 165 545 0 545 0 0 -159z m7470 127 c18 -30 20 -51 20 -209
0 -171 -1 -176 -23 -197 -13 -12 -27 -19 -30 -15 -11 11 -8 362 3 384 10 17 7
19 -24 19 -41 0 -56 18 -31 37 32 23 64 16 85 -19z m7060 10 c0 -6 -7 -20 -17
-30 -15 -17 -14 -18 15 -18 22 0 32 -5 32 -15 0 -11 -12 -15 -45 -15 -32 0
-45 -4 -45 -14 0 -14 29 -26 68 -26 13 0 22 -6 22 -15 0 -11 -11 -15 -38 -15
-46 0 -55 -6 -41 -31 7 -13 21 -19 44 -19 19 0 35 -4 35 -10 0 -6 -27 -10 -60
-10 l-60 0 0 81 c0 73 2 81 20 86 12 3 27 18 36 34 15 29 34 39 34 17z m-7137
-41 c16 -11 17 -35 15 -241 -3 -236 -7 -256 -42 -221 -14 14 -16 47 -16 239 0
245 2 254 43 223z m277 -73 c85 -47 160 -92 166 -100 10 -13 16 -11 39 11 37
33 45 32 45 -10 0 -42 -26 -59 -80 -52 -54 7 -329 166 -336 194 -5 18 1 43 10
43 1 0 72 -39 156 -86z m4590 61 c24 -13 30 -22 30 -49 0 -39 -14 -53 -58 -62
-25 -5 -32 -12 -32 -30 0 -15 -6 -24 -15 -24 -12 0 -15 16 -15 84 0 58 4 86
13 89 23 10 48 7 77 -8z m173 -17 c12 -14 15 -28 10 -42 -4 -12 -6 -40 -5 -63
2 -33 -1 -43 -13 -43 -9 0 -20 11 -25 25 -5 14 -11 25 -14 25 -2 0 -11 3 -20
6 -13 5 -16 -1 -16 -25 0 -24 -4 -31 -20 -31 -18 0 -20 7 -20 68 0 37 3 78 7
90 5 22 9 23 52 17 28 -4 53 -14 64 -27z m169 5 c40 -36 28 -136 -19 -154 -50
-19 -107 11 -118 63 -19 84 75 147 137 91z m163 4 c11 -5 23 -15 27 -21 14
-20 8 -91 -8 -114 -14 -20 -23 -23 -72 -20 l-57 3 -3 82 c-3 78 -2 82 20 86
27 5 65 -2 93 -16z m96 -9 c1 -18 1 -37 -1 -43 -5 -28 13 -74 31 -80 29 -10
49 12 49 55 0 21 3 52 6 69 10 48 34 21 34 -39 0 -75 -16 -108 -55 -116 -33
-6 -73 8 -87 30 -10 14 -10 140 -1 149 14 15 23 5 24 -25z m258 17 c31 -16 46
-41 30 -51 -6 -3 -18 1 -28 10 -22 20 -65 21 -80 2 -21 -25 -9 -79 20 -95 24
-13 29 -13 58 8 31 22 31 22 31 2 0 -51 -102 -64 -135 -18 -26 37 -19 94 14
128 33 33 50 35 90 14z m192 -2 c10 -10 6 -14 -19 -19 l-32 -6 0 -69 c0 -55
-3 -69 -15 -69 -12 0 -15 14 -15 70 0 68 -1 70 -24 70 -28 0 -45 18 -27 29 19
12 119 7 132 -6z m150 -12 c65 -65 9 -181 -74 -155 -41 12 -57 35 -57 81 0 52
13 81 43 93 38 15 58 11 88 -19z m137 18 c31 -10 47 -33 36 -50 -3 -5 -12 -2
-20 6 -19 18 -78 21 -72 3 3 -7 18 -18 35 -23 67 -22 85 -70 37 -101 -35 -24
-98 -9 -102 24 -4 26 1 27 33 6 27 -17 65 -11 65 11 0 8 -18 20 -40 26 -22 7
-45 18 -51 25 -16 20 -3 59 23 72 13 6 23 11 24 11 1 1 15 -4 32 -10z m538 -6
c38 -25 46 -55 32 -129 -10 -51 -16 -63 -28 -58 -8 3 -31 10 -50 15 -42 10
-80 50 -80 85 0 35 27 83 53 94 32 13 45 12 73 -7z m212 -61 c2 -61 0 -74 -18
-92 -24 -24 -67 -26 -98 -4 -19 13 -22 24 -22 90 0 53 4 74 13 74 9 0 12 -19
12 -65 0 -48 4 -68 15 -75 44 -28 70 4 70 87 0 47 3 64 13 61 8 -3 13 -30 15
-76z m62 -12 c0 -73 -3 -90 -15 -90 -12 0 -15 16 -15 83 0 46 3 87 7 90 18 18
23 0 23 -83z m330 0 c0 -87 -1 -90 -22 -90 -17 0 -31 14 -53 53 l-30 52 -3
-52 c-3 -45 -6 -53 -23 -53 -17 0 -19 7 -19 85 0 82 1 85 23 85 17 0 30 -13
52 -54 16 -30 33 -52 37 -50 4 3 8 30 8 60 0 41 4 54 15 54 12 0 15 -17 15
-90z m148 68 c3 -15 -4 -18 -42 -18 -61 0 -64 -25 -4 -37 59 -12 62 -33 4 -33
-34 0 -46 -4 -46 -15 0 -18 31 -35 64 -35 14 0 26 -4 26 -10 0 -6 -27 -10 -60
-10 l-60 0 0 80 c0 74 2 81 23 90 36 15 91 8 95 -12z m130 6 c27 -19 31 -50 5
-38 -28 12 -76 10 -80 -3 -3 -8 4 -13 17 -13 28 0 76 -26 84 -45 9 -26 -12
-64 -39 -71 -41 -10 -89 8 -93 34 -4 26 10 29 28 6 17 -19 64 -14 68 7 2 12
-9 21 -39 31 -70 23 -78 65 -18 95 31 16 40 16 67 -3z m212 1 c17 -9 30 -22
30 -30 0 -17 -26 -20 -35 -5 -9 15 -55 12 -55 -3 0 -8 18 -19 41 -26 94 -28
58 -129 -39 -105 -27 7 -38 15 -40 32 -4 26 19 30 38 7 15 -18 46 -20 56 -3 9
14 -31 48 -57 48 -43 0 -44 64 -1 89 23 14 28 13 62 -4z m191 -14 c65 -66 11
-181 -73 -156 -45 14 -58 35 -58 91 0 45 4 56 26 73 37 29 70 26 105 -8z m97
17 c5 -7 18 -37 28 -67 16 -51 18 -53 27 -30 41 106 45 113 71 103 23 -9 24
-174 1 -174 -11 0 -15 12 -15 50 0 28 -4 50 -10 50 -5 0 -10 -8 -10 -17 0 -9
-5 -32 -12 -50 -17 -48 -47 -41 -66 15 -16 50 -34 46 -30 -6 2 -28 -1 -37 -12
-37 -12 0 -15 16 -17 75 -2 87 16 122 45 88z m292 -8 c74 -52 29 -188 -54
-165 -58 17 -66 26 -66 80 0 53 10 75 45 93 29 16 43 15 75 -8z m793 9 c38
-17 60 -64 53 -110 -4 -23 -2 -49 5 -60 14 -27 3 -38 -15 -14 -12 16 -17 17
-43 6 -40 -16 -77 -5 -108 31 -42 49 -28 114 30 146 26 15 48 15 78 1z m-615
-11 c19 -19 15 -41 -5 -33 -39 17 -73 18 -73 2 0 -8 12 -17 28 -21 69 -15 90
-82 34 -105 -36 -15 -79 -5 -93 21 -15 28 -6 32 31 13 35 -18 60 -14 60 9 0 9
-17 20 -41 28 -52 15 -71 48 -44 78 20 23 83 28 103 8z m-15673 -10 c14 -6 25
-19 25 -30 0 -22 -8 -22 -34 -3 -40 31 -85 8 -86 -43 -1 -60 44 -80 87 -40 29
27 42 15 22 -20 -17 -31 -68 -41 -105 -21 -49 26 -53 120 -7 155 22 17 64 18
98 2z m185 -8 c31 -31 28 -109 -5 -144 -21 -23 -31 -26 -58 -21 -43 10 -65 31
-73 71 -8 41 1 77 22 98 23 23 89 21 114 -4z m130 -45 l35 -60 3 63 c2 46 7
62 17 62 12 0 15 -18 15 -90 0 -83 -2 -90 -20 -90 -14 0 -30 18 -52 58 l-33
57 -5 -60 c-4 -44 -9 -60 -20 -60 -12 0 -16 18 -18 93 -3 92 -2 93 20 90 15
-2 34 -22 58 -63z m232 50 c-1 -5 -12 -10 -25 -10 -21 0 -22 -5 -25 -78 -2
-59 -6 -77 -17 -77 -12 0 -15 16 -15 74 l0 74 -31 6 c-18 3 -28 10 -24 16 9
14 141 9 137 -5z m96 3 c13 -17 52 -130 52 -151 0 -26 -29 -20 -36 8 -5 20
-13 25 -35 25 -22 0 -32 -7 -41 -25 -11 -25 -38 -35 -38 -15 0 18 42 144 53
158 5 6 15 12 22 12 7 0 17 -6 23 -12z m204 -5 c10 -9 18 -22 18 -30 0 -18
-25 -17 -40 2 -17 20 -66 19 -74 -1 -10 -26 -7 -79 6 -92 18 -18 49 -14 75 10
30 28 42 15 16 -20 -27 -36 -83 -42 -112 -13 -29 29 -29 113 -1 141 25 25 86
27 112 3z m176 5 c-3 -7 -14 -14 -26 -16 -23 -4 -25 -13 -26 -102 -1 -34 -5
-45 -18 -48 -16 -3 -18 5 -18 72 0 74 -1 76 -24 76 -26 0 -40 12 -29 24 3 3
37 6 76 6 50 0 68 -3 65 -12z m151 -14 c24 -30 26 -56 10 -103 -19 -54 -83
-69 -126 -29 -31 29 -33 108 -3 138 31 31 93 27 119 -6z m6329 -205 c2 -12
-39 -39 -145 -98 -81 -45 -160 -85 -174 -88 -24 -5 -26 -7 -16 -33 6 -15 7
-35 4 -45 -7 -16 -9 -16 -30 -3 -13 9 -23 28 -25 45 -4 44 40 83 193 169 133
75 186 90 193 53z m102 -18 c0 -26 -13 -36 -196 -140 -108 -61 -199 -111 -204
-111 -10 0 -20 38 -14 54 3 7 60 42 127 78 67 37 151 85 187 107 80 49 100 52
100 12z m-3580 -2175 l0 -925 -52 -6 c-29 -3 -89 -5 -133 -3 l-80 3 -3 928 -2
927 135 0 135 0 0 -924z m5270 604 c0 -176 2 -320 5 -320 3 0 26 16 51 36 107
81 198 107 369 107 101 -1 133 -5 201 -27 103 -33 182 -85 266 -174 261 -278
236 -782 -52 -1026 -96 -82 -169 -116 -300 -142 -94 -18 -149 -18 -242 0 -103
20 -150 39 -228 91 -37 25 -69 45 -71 45 -2 0 -3 -26 -1 -59 l4 -58 -39 -6
c-21 -3 -81 -5 -133 -4 l-95 2 -3 928 -2 927 135 0 135 0 0 -320z m-8242 128
l-3 -133 -135 0 -135 0 -3 133 -3 132 141 0 141 0 -3 -132z m730 -55 l-3 -188
-130 0 -130 0 -5 35 c-3 19 -4 104 -2 188 l4 152 134 0 134 0 -2 -187z m10760
0 l-3 -188 -130 0 -130 0 -3 175 c-1 96 0 180 2 187 4 10 39 13 136 13 l130 0
-2 -187z m780 55 l-3 -133 -120 -3 c-178 -4 -165 -15 -165 132 0 67 3 126 7
129 3 4 69 7 145 7 l139 0 -3 -132z m-13488 78 c152 -25 253 -70 372 -165 258
-204 368 -552 292 -921 -50 -244 -216 -461 -436 -568 -142 -70 -206 -81 -505
-84 -152 -2 -245 1 -251 7 -6 6 -8 58 -5 128 l6 117 221 0 c238 1 304 9 396
52 297 137 418 554 257 887 -39 81 -159 207 -233 244 -107 54 -137 57 -582 57
l-410 0 -4 28 c-2 15 -2 74 0 130 l4 102 397 0 c292 0 418 -4 481 -14z m6907
3 c86 -12 163 -37 235 -76 59 -32 167 -143 197 -201 35 -69 61 -187 61 -276
-1 -253 -120 -410 -376 -495 -131 -44 -218 -52 -489 -49 l-240 3 -3 121 -3
121 44 6 c24 3 108 4 188 0 197 -7 375 10 450 43 115 52 165 138 157 273 -4
62 -10 88 -31 124 -34 58 -87 101 -157 130 -53 21 -68 22 -525 27 l-470 5 -3
114 c-2 75 1 118 9 127 9 12 87 14 445 14 259 0 464 -4 511 -11z m-1906 -376
c49 -48 88 -90 87 -95 -2 -4 -127 -132 -278 -285 -152 -153 -335 -341 -408
-417 l-132 -139 0 189 0 190 273 279 c150 154 290 299 311 323 21 23 43 42 48
42 6 0 51 -39 99 -87z m-5627 51 c14 -6 16 -77 16 -704 0 -385 -4 -701 -9
-704 -11 -7 -248 -12 -255 -6 -8 9 -9 52 -7 752 l1 657 103 4 c56 1 110 4 119
5 9 1 23 -1 32 -4z m6836 -709 l0 -706 -132 3 -133 3 -3 703 -2 702 135 0 135
0 0 -705z m-3021 633 c25 -6 84 -28 130 -49 67 -31 98 -54 160 -116 139 -140
190 -265 198 -485 l6 -138 -532 0 c-355 0 -531 -3 -531 -10 0 -6 13 -40 29
-75 41 -91 114 -164 204 -206 66 -31 80 -34 172 -34 93 0 105 2 167 33 44 21
84 51 118 89 l51 56 137 -2 c75 -1 140 -6 145 -10 11 -11 -86 -168 -136 -220
-63 -65 -151 -127 -215 -151 -68 -26 -198 -50 -267 -50 -58 0 -188 23 -254 46
-175 59 -331 225 -398 422 -31 94 -42 261 -24 368 51 289 267 503 551 545 66
9 226 3 289 -13z m5246 -4 c435 -107 626 -669 364 -1074 -207 -321 -686 -385
-996 -133 -92 75 -182 228 -210 357 -23 106 -21 291 6 389 68 255 282 446 534
476 89 11 222 4 302 -15z m3125 4 c25 -6 83 -28 130 -50 118 -56 230 -169 288
-289 101 -209 96 -477 -10 -683 -48 -91 -152 -204 -232 -251 -124 -73 -299
-107 -441 -87 -176 26 -275 72 -386 183 -132 130 -199 303 -199 509 0 204 72
381 207 512 91 88 227 153 358 169 71 9 221 2 285 -13z m3030 -4 c170 -44 334
-177 410 -335 22 -46 41 -95 42 -109 l3 -25 -137 -3 -137 -3 -26 51 c-55 109
-145 174 -263 191 -139 20 -273 -23 -361 -116 -84 -89 -121 -185 -121 -315 0
-179 84 -331 221 -399 203 -101 415 -44 519 142 l32 58 137 -3 136 -3 -3 -25
c-6 -54 -83 -190 -145 -257 -109 -117 -216 -172 -387 -200 -80 -13 -111 -14
-194 -4 -173 21 -276 70 -392 186 -58 58 -82 92 -117 166 -58 121 -77 203 -77
338 0 202 66 367 200 502 140 140 294 195 515 182 50 -3 115 -12 145 -19z
m1396 -8 c82 -26 171 -82 215 -135 46 -55 88 -150 95 -213 l7 -58 -136 0 -135
0 -7 38 c-8 48 -48 108 -82 125 -74 38 -244 45 -346 17 -60 -17 -98 -58 -104
-110 -4 -36 -1 -51 17 -73 43 -55 103 -76 375 -132 86 -17 212 -58 267 -86 58
-30 126 -96 154 -150 53 -106 41 -268 -30 -372 -146 -216 -586 -274 -862 -112
-106 62 -184 170 -218 302 -29 110 -37 103 122 103 l139 0 12 -54 c16 -70 45
-113 103 -152 119 -80 368 -66 460 26 30 29 38 45 38 73 0 103 -55 136 -335
197 -305 67 -423 129 -486 256 -20 42 -24 63 -24 144 1 83 4 103 29 157 60
130 193 212 379 233 112 13 270 2 353 -24z m-14774 4 c2 -5 2 -306 0 -669 l-2
-659 -114 -7 c-63 -4 -124 -4 -135 0 -21 6 -21 6 -21 669 0 364 3 666 7 669
11 11 261 8 265 -3z m1026 -112 l-3 -123 -405 0 -405 0 -3 123 -3 122 411 0
411 0 -3 -122z m10766 106 c9 -23 7 -207 -2 -222 -7 -9 -96 -12 -413 -10
l-404 3 -3 109 c-1 61 0 116 2 123 4 10 85 13 410 13 359 0 405 -2 410 -16z
m476 -653 l0 -668 -125 -7 c-69 -4 -130 -4 -135 -1 -6 4 -10 247 -10 676 l0
669 135 0 135 0 0 -669z m-11532 -155 c1 -275 -1 -503 -5 -507 -12 -11 -252
-19 -258 -9 -7 12 -6 1000 1 1011 3 5 63 8 132 7 l127 -3 3 -499z m10762 -5
l0 -508 -126 -7 c-69 -4 -129 -5 -132 -1 -8 8 -15 993 -8 1012 4 10 38 13 136
13 l130 0 0 -509z m-8008 142 c20 -32 58 -89 85 -128 161 -229 286 -411 290
-421 2 -6 -31 -35 -74 -64 -43 -29 -89 -61 -102 -72 -13 -10 -27 -18 -32 -18
-4 0 -22 24 -41 53 -32 51 -183 271 -300 436 l-60 84 59 60 c32 33 73 75 91
93 18 19 36 34 40 34 4 0 24 -26 44 -57z m2528 -293 c94 -144 170 -265 168
-270 -4 -13 -199 -141 -209 -138 -16 6 -400 601 -392 608 4 4 45 12 90 19 46
7 100 18 120 26 21 7 41 14 44 14 4 1 84 -116 179 -259z"/>
<path d="M2030 6757 c-31 -15 -50 -52 -50 -95 0 -39 46 -92 80 -92 12 0 35 13
51 29 24 24 29 38 29 75 0 44 -24 86 -49 86 -5 0 -15 2 -23 5 -7 3 -24 -1 -38
-8z m68 -39 c16 -16 15 -70 -1 -92 -18 -25 -58 -17 -76 15 -21 38 0 89 38 89
15 0 32 -5 39 -12z"/>
<path d="M1437 6753 c-3 -5 -5 -45 -6 -90 -1 -77 0 -83 19 -83 17 0 20 7 20
53 0 93 -16 149 -33 120z"/>
<path d="M1500 6686 c0 -41 -3 -81 -6 -90 -5 -12 0 -16 21 -16 l28 0 -7 62
c-7 56 -6 60 9 48 9 -8 28 -35 41 -62 17 -33 30 -48 45 -48 19 0 20 5 17 88
-2 69 -6 87 -18 87 -12 0 -14 -11 -12 -52 4 -64 -10 -69 -37 -14 -24 46 -47
71 -67 71 -11 0 -14 -17 -14 -74z"/>
<path d="M1680 6670 c0 -73 3 -90 15 -90 12 0 15 17 15 90 0 73 -3 90 -15 90
-12 0 -15 -17 -15 -90z"/>
<path d="M1762 6737 c-34 -36 -30 -100 7 -138 32 -31 50 -35 84 -18 28 15 37
28 37 58 l0 25 -29 -28 c-34 -33 -60 -31 -80 6 -23 40 -5 82 35 86 19 2 36 -3
44 -12 15 -20 30 -21 30 -3 0 47 -91 63 -128 24z"/>
<path d="M1926 6753 c-3 -3 -6 -44 -6 -90 0 -67 3 -83 15 -83 12 0 15 16 15
84 0 78 -7 105 -24 89z"/>
<path d="M14530 6711 c0 -33 2 -34 38 -25 34 10 26 48 -10 52 -25 3 -28 0 -28
-27z"/>
<path d="M14680 6710 c0 -16 5 -30 11 -30 23 0 49 22 49 40 0 16 -7 20 -30 20
-27 0 -30 -3 -30 -30z"/>
<path d="M14842 6728 c-6 -6 -12 -27 -12 -45 0 -42 37 -71 70 -53 18 9 21 19
18 58 -3 44 -5 47 -33 50 -17 2 -36 -3 -43 -10z"/>
<path d="M15022 6683 c3 -66 22 -79 57 -44 42 42 20 101 -39 101 -19 0 -21 -5
-18 -57z"/>
<path d="M15701 6721 c-23 -42 -3 -101 33 -101 31 0 47 26 44 70 -3 42 -5 45
-35 48 -23 2 -34 -2 -42 -17z"/>
<path d="M16392 6728 c-17 -17 -15 -74 4 -92 18 -18 36 -13 28 8 -4 10 2 12
20 9 27 -6 30 0 26 47 -1 14 -7 28 -14 32 -17 12 -51 9 -64 -4z"/>
<path d="M17660 6721 c-15 -29 -12 -67 6 -85 18 -19 28 -20 55 -6 22 12 27 78
7 98 -18 18 -56 14 -68 -7z"/>
<path d="M18063 6728 c-29 -37 -22 -77 17 -98 14 -8 26 -8 41 0 17 9 20 19 17
58 -3 44 -5 47 -34 50 -17 2 -35 -3 -41 -10z"/>
<path d="M18848 6733 c-25 -29 -29 -53 -13 -82 23 -45 67 -54 105 -23 28 23
30 75 4 103 -22 24 -76 25 -96 2z"/>
<path d="M2741 6721 c-9 -6 -15 -25 -15 -44 0 -61 43 -87 77 -49 20 22 22 73
5 90 -14 14 -47 15 -67 3z"/>
<path d="M3252 6681 c-9 -26 -8 -28 9 -24 10 3 19 14 19 24 0 30 -17 31 -28 0z"/>
<path d="M3720 6711 c-23 -44 -4 -101 33 -101 13 0 28 5 35 12 13 13 16 66 6
92 -9 23 -61 21 -74 -3z"/>
<path d="M12241 4509 c-103 -18 -210 -100 -260 -197 -63 -123 -67 -295 -11
-446 26 -69 112 -161 182 -195 72 -34 168 -47 250 -33 189 33 308 164 337 372
13 94 -8 221 -47 294 -43 80 -126 158 -197 184 -71 25 -179 34 -254 21z"/>
<path d="M5399 4510 c-69 -12 -139 -52 -192 -109 -42 -44 -88 -124 -99 -169
-2 -11 68 -14 380 -15 379 -2 382 -2 382 19 0 73 -137 228 -227 258 -59 19
-183 28 -244 16z"/>
<path d="M10645 4510 c-141 -22 -259 -129 -300 -274 -22 -75 -23 -242 -2 -313
62 -208 251 -324 460 -283 186 36 299 173 322 390 20 197 -86 402 -237 458
-63 23 -173 33 -243 22z"/>
<path d="M13777 4510 c-244 -41 -384 -332 -291 -607 38 -113 121 -205 222
-244 81 -32 223 -32 304 0 71 27 154 102 191 169 102 188 71 448 -70 584 -62
60 -116 87 -195 98 -72 11 -94 11 -161 0z"/>
</g>
</svg>
